<svg width="20" height="5" viewBox="0 0 20 5" fill="none" xmlns="http://www.w3.org/2000/svg">
<path d="M1.875 4.375C2.91053 4.375 3.75 3.53553 3.75 2.5C3.75 1.46447 2.91053 0.625 1.875 0.625C0.839466 0.625 0 1.46447 0 2.5C0 3.53553 0.839466 4.375 1.875 4.375Z" fill="#9C9C9C"/>
<path d="M9.625 4.375C10.6605 4.375 11.5 3.53553 11.5 2.5C11.5 1.46447 10.6605 0.625 9.625 0.625C8.58947 0.625 7.75 1.46447 7.75 2.5C7.75 3.53553 8.58947 4.375 9.625 4.375Z" fill="#9C9C9C"/>
<path d="M17.375 4.375C18.4105 4.375 19.25 3.53553 19.25 2.5C19.25 1.46447 18.4105 0.625 17.375 0.625C16.3395 0.625 15.5 1.46447 15.5 2.5C15.5 3.53553 16.3395 4.375 17.375 4.375Z" fill="#9C9C9C"/>
</svg>
