<svg width="25" height="25" viewBox="0 0 25 25" fill="none" xmlns="http://www.w3.org/2000/svg">
<path d="M12.875 6.75C13.9105 6.75 14.75 5.91053 14.75 4.875C14.75 3.83947 13.9105 3 12.875 3C11.8395 3 11 3.83947 11 4.875C11 5.91053 11.8395 6.75 12.875 6.75Z" fill="white"/>
<path d="M12.875 14.25C13.9105 14.25 14.75 13.4105 14.75 12.375C14.75 11.3395 13.9105 10.5 12.875 10.5C11.8395 10.5 11 11.3395 11 12.375C11 13.4105 11.8395 14.25 12.875 14.25Z" fill="white"/>
<path d="M12.875 21.75C13.9105 21.75 14.75 20.9105 14.75 19.875C14.75 18.8395 13.9105 18 12.875 18C11.8395 18 11 18.8395 11 19.875C11 20.9105 11.8395 21.75 12.875 21.75Z" fill="white"/>
</svg>
