<svg width="25" height="25" viewBox="0 0 25 25" fill="none" xmlns="http://www.w3.org/2000/svg">
<path d="M7.75 21.64V18.76H25V21.64H7.75ZM7.75 14.44V11.56H25V14.44H7.75ZM7.75 7.24V4.36H25V7.24H7.75Z" fill="white"/>
<path d="M2.875 7.6C3.91053 7.6 4.75 6.79411 4.75 5.8C4.75 4.80589 3.91053 4 2.875 4C1.83947 4 1 4.80589 1 5.8C1 6.79411 1.83947 7.6 2.875 7.6Z" fill="white"/>
<path d="M2.875 14.8C3.91053 14.8 4.75 13.9941 4.75 13C4.75 12.0059 3.91053 11.2 2.875 11.2C1.83947 11.2 1 12.0059 1 13C1 13.9941 1.83947 14.8 2.875 14.8Z" fill="white"/>
<path d="M2.875 22C3.91053 22 4.75 21.1941 4.75 20.2C4.75 19.2059 3.91053 18.4 2.875 18.4C1.83947 18.4 1 19.2059 1 20.2C1 21.1941 1.83947 22 2.875 22Z" fill="white"/>
<mask id="mask0_493_2604" style="mask-type:alpha" maskUnits="userSpaceOnUse" x="0" y="0" width="25" height="25">
<rect width="25" height="25" fill="#D9D9D9"/>
</mask>
<g mask="url(#mask0_493_2604)">
</g>
</svg>
