<svg width="50" height="50" viewBox="0 0 50 50" fill="none" xmlns="http://www.w3.org/2000/svg">
<rect width="50" height="50" rx="25" fill="white"/>
<path d="M42.409 33.8312C40.6709 37.1026 38.0065 39.7825 34.7529 41.532C31.4992 43.2817 27.8022 44.0224 24.1296 43.6605C20.4571 43.2987 16.9737 41.8506 14.12 39.4993C11.2664 37.1481 9.17066 33.9992 8.09785 30.451C7.02504 26.9028 7.02334 23.1145 8.09296 19.5653C9.16257 16.0161 11.2555 12.8653 14.107 10.5114C16.9585 8.15757 20.4406 6.70629 24.1129 6.34113C27.7851 5.97598 31.4827 6.71335 34.738 8.46L32.5285 12.6185C30.0917 11.311 27.3238 10.759 24.5748 11.0324C21.8258 11.3057 19.2192 12.3921 17.0846 14.1542C14.95 15.9162 13.3833 18.2748 12.5826 20.9317C11.7819 23.5885 11.7832 26.4244 12.5863 29.0805C13.3894 31.7366 14.9582 34.0938 17.0944 35.8539C19.2305 37.614 21.8381 38.6981 24.5873 38.9689C27.3366 39.2397 30.104 38.6853 32.5397 37.3755C34.9753 36.0658 36.9698 34.0597 38.2709 31.6109L42.409 33.8312Z" fill="#153D78"/>
<path d="M26.9151 34.6983C32.0674 34.6983 36.2442 30.501 36.2442 25.3233C36.2442 20.1456 32.0674 15.9483 26.9151 15.9483C21.7629 15.9483 17.5861 20.1456 17.5861 25.3233C17.5861 30.501 21.7629 34.6983 26.9151 34.6983Z" fill="#5AC4FF"/>
</svg>
